<svg xmlns="http://www.w3.org/2000/svg" width="219" height="103" fill="#000" viewBox="0 0 219 103"><path d="M10.05 38.86c0 5.02 2.14 7.9 4.29 9.18q.4.32.4.74c0 .6-.47.87-1.07.87-2.61 0-3.42-.54-6.1-.54s-3.55.54-6.16.54c-.6 0-1.08-.27-1.08-.87q0-.42.4-.74c2.15-1.27 4.3-4.16 4.3-9.18V15.14c0-6.3-1.35-8.64-4.1-10.78C.34 3.96 0 3.56 0 3c0-.8.54-1.33 1.4-1.33h2.75c4.02 0 6.97 2.07 9.38 4.69l21.91 23.58c.8.87 1.61.47 1.61-.6V12.46c0-5.02-2.14-7.9-4.29-9.18a1 1 0 0 1-.4-.73c0-.6.47-.87 1.07-.87 2.62 0 3.42.53 6.1.53s3.55-.53 6.16-.53c.6 0 1.08.26 1.08.87q0 .41-.4.73c-2.15 1.28-4.3 4.16-4.3 9.18v35.71c0 .94-.53 1.48-1.33 1.48-.6 0-.94-.27-1.41-.8l-27.74-30.1c-.74-.8-1.54-.4-1.54.6zm56.1 9.25c-4.36 9.64-7.38 14.94-14.54 14.94-2.42 0-3.29-.54-5.43-.54-1.81 0-2.48.54-4.56.54-1.4 0-1.47-1.61-.53-2.15a11.7 11.7 0 0 0 4.22-4.42c1-1.94 1.74-2.54 2.54-2.54.54 0 .8.33 1.08 1 .46 1.14 1.6 2.14 3.68 2.14 3.55 0 5.83-2.74 8.71-9.78q.72-1.7.13-3.01l-8.97-20.1c-2.21-4.9-3.96-7.9-5.77-9.18a1 1 0 0 1-.4-.74c0-.6.47-.87 1.07-.87 2.28 0 4.63.54 7.3.54 2.69 0 5.1-.54 7.38-.54.6 0 1.07.27 1.07.87q0 .42-.4.74c-1.68 1.2-3.82 4.15-1.95 8.37l4.83 10.86c.53 1.14 1.67 1.27 2.28-.14l4.35-9.91c2.55-5.83-.4-8.24-2.28-9.12-.33-.13-.53-.53-.53-.87 0-.53.47-.8 1.07-.8 2.41 0 4.96.54 6.97.54 2.68 0 3.55-.54 6.5-.54.6 0 1.07.27 1.07.8 0 .34-.2.67-.54.8-2.4.95-4.89 3.36-7.5 9.19zm41.27 1.54c-.54 0-1.6-.27-1.6-.87 0-.27.13-.54.33-.67 2.54-1.34 4.62-4.23 4.62-9.25V28.01c0-4.56-2.28-7.44-6.97-7.44-4.29 0-7.64 2.41-7.64 6.9v11.39c0 5.02 2.01 7.9 3.96 9.18.26.13.33.47.33.74 0 .6-.4.87-.94.87-2.34 0-4.69-.54-7.03-.54-2.35 0-4.76.54-7.04.54-.53 0-.94-.27-.94-.87q.02-.42.34-.74c1.6-1.6 3.95-4.16 3.95-9.18V28.21c0-5.03-1.47-8.18-3.68-9.65-.4-.27-.6-.67-.6-.94 0-.6.4-.94 1-.94 4.69 0 8.24-3.28 10.92-3.28.54 0 .94.27.94.87 0 .27-.14.54-.27.74a7.6 7.6 0 0 0-1.27 3.62c0 .53.27.87.67.87.53 0 .87-.34 1.27-.87 2.48-3.49 5.43-5.23 9.65-5.23s7.57 2.01 9.31 5.76c.2.47.54.8.94.8.54 0 .87-.33 1.2-.87 2.55-4.08 6.3-5.69 10.53-5.69 6.36 0 10.72 4.56 10.72 12.86v12.6c0 5.02 2 7.9 3.95 9.25.2.13.33.4.33.67 0 .6-.4.87-.94.87-2.34 0-4.69-.54-7.03-.54s-4.76.54-7.03.54c-.54 0-1.61-.27-1.61-.87 0-.27.13-.54.33-.67 2.55-1.34 4.63-4.23 4.63-9.25V28.01c0-4.56-2.28-7.44-6.97-7.44-4.3 0-7.64 2.41-7.64 6.9v11.39c0 5.02 2 7.9 3.95 9.25.2.13.34.4.34.67 0 .6-.4.87-.94.87-2.35 0-4.7-.54-7.04-.54s-4.75.54-7.03.54m65.5-16.15c0-8.64-5.43-12.93-10.19-12.93-4.15 0-7.37 2.41-7.37 6.9v6.83c0 6.03 3.22 9.85 8.45 9.85 5.02 0 9.1-4.28 9.1-10.65M143.7 62.18q.01-.42.33-.74c1.6-1.6 3.95-4.16 3.95-9.18V28.21c0-5.03-1.47-8.18-3.68-9.65-.4-.27-.6-.67-.6-.94 0-.6.4-.94 1-.94 4.7 0 8.24-3.28 10.92-3.28.54 0 .94.27.94.87 0 .27-.13.54-.27.74a7.6 7.6 0 0 0-1.27 3.62c0 .53.27.87.67.87.54 0 .87-.34 1.27-.87 2.48-3.49 5.5-5.23 9.38-5.23 6.37 0 13.94 5.43 13.94 17.09 0 12.19-9.05 19.16-18.76 19.16-2.21 0-3.55-.54-4.7-.54-.8 0-1.47.54-1.47 1.34v1.81c0 5.02 2.01 7.9 4.63 9.18.26.13.4.47.4.74 0 .6-.47.87-1 .87-3.02 0-5.37-.54-7.71-.54-2.35 0-4.76.54-7.04.54-.53 0-.93-.27-.93-.87m59.78-12.53c-.53 0-1.6-.27-1.6-.87 0-.27.13-.54.33-.67 2.55-1.34 4.62-4.23 4.62-9.25V28.01c0-4.56-2.68-7.44-7.37-7.44-4.28 0-7.9 2.41-7.9 6.9v11.39c0 5.02 2 7.9 3.95 9.18.27.13.33.47.33.74 0 .6-.4.87-.93.87-2.35 0-4.7-.54-7.04-.54s-4.75.54-7.03.54c-.54 0-.94-.27-.94-.87q.01-.42.33-.74c1.61-1.6 3.96-4.16 3.96-9.18V14.81c0-5.03-1.48-8.18-3.69-9.65-.4-.27-.6-.67-.6-.94 0-.6.4-.94 1-.94 6.03 0 8.58-3.28 11.26-3.28.54 0 .94.27.94.87 0 .27-.14.6-.27.8-.6 1.08-1.27 2.95-1.27 6.04v10.92c0 .53.27.87.67.87.53 0 .87-.34 1.2-.94 1.88-3.42 5.56-5.16 9.78-5.16 6.37 0 11 4.56 11 12.86v12.6c0 5.02 2 7.9 3.95 9.25.2.13.33.4.33.67 0 .6-.4.87-.94.87-2.34 0-4.69-.54-7.03-.54-2.35 0-4.76.54-7.04.54m-186.54 53c-.6 0-1.08-.27-1.08-.87q0-.42.4-.74c2.15-1.27 4.3-4.16 4.3-9.18v-26.4c0-5.02-2.15-7.9-3.96-9.18a1 1 0 0 1-.4-.73c0-.6.47-.87 1.07-.87 2.28 0 4.96.53 7.64.53s5.36-.54 7.64-.54c.6 0 1.07.27 1.07.88q0 .41-.4.73c-1.81 1.28-3.96 4.16-3.96 9.18v25.26c0 5.03 1.81 6.77 5.97 6.77h2.27c8.45 0 15.28-7.04 18.43-14.2.27-.54.67-.88 1.2-.88.74 0 1.08.74.94 1.68-.67 4.22-2.6 7.7-5.16 12.2-2 3.54-1.07 6.36-3.34 6.36-.88 0-3.82-.54-6.77-.54H24.9c-2.67 0-5.35.54-7.96.54m62.06 0c-9.38 0-17.55-7.1-17.55-18.36 0-11.12 8.04-17.89 17.69-17.89 9.38 0 17.42 6.97 17.42 17.89 0 11.32-7.9 18.36-17.56 18.36M69.57 81c0 7.9 4.75 16.14 11.12 16.14 4.89 0 7.9-3.62 7.9-9.31 0-8.04-5.42-15.95-11.38-15.95-4.36 0-7.64 3.35-7.64 9.12m30.9 4.55c0-12.2 8.58-19.16 18.16-19.16 2.01 0 3.82.54 5.3.54.8 0 1.4-.54 1.4-1.34 0-3.76-1.74-6.17-3.62-7.44-.4-.27-.6-.67-.6-.94 0-.6.4-.94 1-.94 4.7 0 8.52-3.28 11.53-3.28.54 0 .94.27.94.87 0 .27-.14.54-.27.8-1 2.08-1.54 5.3-1.54 11.6v21.57c0 5.02 1.47 8.17 3.68 9.65.4.27.6.67.6.94 0 .6-.4.93-1 .93-4.69 0-8.24 3.29-10.92 3.29-.53 0-.94-.27-.94-.87 0-.27.14-.54.27-.74a7.6 7.6 0 0 0 1.27-3.62c0-.53-.26-.87-.67-.87-.53 0-.87.34-1.27.87-2.48 3.48-5.5 5.23-9.38 5.23-6.36 0-13.94-5.43-13.94-17.09m7.38-3.82c0 9.32 5.62 13.74 9.98 13.74 4.29 0 7.57-2.41 7.57-6.9v-6.84c0-6.03-3.69-9.85-8.91-9.85-5.03 0-8.64 4.16-8.64 9.85M158.9 96.9c5.23 0 8.98-2.22 11.6-6.03q.51-.8 1.13-.8c.94 0 1.28.86.8 1.87-.8 1.94-2 2.88-3.68 5.7-1.47 2.54-1.74 5.02-3.01 5.02-.67 0-1.48-.54-2.82-.54-1.74 0-2.6.54-5.76.54-12.33 0-19.5-7.7-19.5-18.56 0-10.92 7.91-17.69 16.02-17.69 5.56 0 9.11 2.81 11.92 6.83a4 4 0 0 0 3.55 1.81c1.01 0 1.81.4 1.81 1.34q.02 1.22-1.67 1.75l-21.98 6.9c-.73.2-1.27.93-.94 2.2 1.48 5.37 6.1 9.66 12.53 9.66m-13-17.22c0 1.14.68 1.74 1.48 1.47l10.32-3.42c.53-.2.87-.8.73-1.34-.73-2.74-2.8-4.95-5.76-4.95-3.82 0-6.76 3.21-6.76 8.24m42.64 22.98c-6.7 0-7.97-1.75-10.59-1.75-2.07 0-3.48 1.75-6.23 1.75-1.27 0-1.47-1.41-.47-1.81 2.01-.87 3.15-3.08 4.02-6.57.94-3.68 2.01-5.63 3.22-6.43 1-.67 1.74.13 1.4 1.07a8 8 0 0 0-.6 3.42c.27 2.55 2.88 5.23 7.04 5.23 3.75 0 6.3-2.28 6.03-5.37-.2-2.54-1.81-3.75-3.82-4.62l-6.03-2.61c-4.22-1.81-6.43-4.82-6.5-8.78-.07-5.9 4.82-9.78 10.99-9.78 4.55 0 6.56 1.54 9.04 1.54 2.35 0 3.89-1.54 6.1-1.54 1.34 0 1.34 1.6.34 1.94-2.55 1-3.56 2.48-4.56 4.3-1.4 2.2-1.68 4.28-2.81 5.28-.88.8-1.81.14-1.61-.67q.22-.9.13-1.8c-.2-2.69-1.94-4.5-5.16-4.5-3.28 0-4.89 2.28-4.69 4.1.2 2 1.54 3.34 4.42 4.55l4.63 1.88c5.02 2.07 7.63 5.76 7.63 10.11 0 6.77-5.76 11.06-11.92 11.06"/></svg>