<svg xmlns="http://www.w3.org/2000/svg" fill="#000" viewBox="0 0 420 64"><path d="M10 38.9c0 5 2.2 7.9 4.3 9.1q.4.3.4.8 0 .9-1 .8c-2.6 0-3.4-.5-6.1-.5s-3.6.5-6.2.5q-1 0-1-.8 0-.5.3-.8C3 46.8 5 44 5 39V15C5 8.8 3.7 6.5 1 4.4Q0 3.9 0 3q0-1.2 1.4-1.3h2.8c4 0 7 2 9.3 4.7l22 23.5c.7 1 1.6.5 1.6-.6V12.5c0-5-2.2-8-4.3-9.2a1 1 0 0 1-.4-.8q0-.8 1-.8c2.6 0 3.5.5 6.1.5 2.7 0 3.6-.5 6.2-.5q1 0 1 .8 0 .5-.3.8C44.2 4.6 42 7.4 42 12.5v35.7q-.1 1.4-1.4 1.4-.8 0-1.4-.8l-27.7-30c-.7-.8-1.5-.4-1.5.6zM66.2 48c-4.3 9.7-7.3 15-14.5 15-2.4 0-3.3-.6-5.4-.6-1.8 0-2.5.5-4.6.5-1.4 0-1.5-1.6-.5-2.1 1.4-.7 3.3-2.7 4.2-4.4q1.4-2.8 2.6-2.6.7 0 1 1 .6 2 3.7 2.2c3.6 0 5.8-2.8 8.7-9.8q.8-1.6.2-3l-9-20.1q-3.2-7.4-5.8-9.2l-.4-.7q.1-.9 1-.9c2.4 0 4.7.5 7.4.5s5-.5 7.4-.5q1 0 1 .9 0 .3-.4.7a7 7 0 0 0-2 8.4l5 10.8c.4 1.2 1.6 1.3 2.2-.1l4.3-10c2.6-5.7-.4-8.2-2.2-9q-.6-.4-.6-.9.1-.8 1.1-.8c2.4 0 5 .5 7 .5 2.6 0 3.5-.5 6.5-.5q1 0 1 .8 0 .6-.5.8c-2.4 1-4.9 3.4-7.5 9.2zm42 1.5c-.5 0-1.6-.2-1.6-.8q0-.5.3-.7c2.6-1.3 4.6-4.2 4.6-9.2V28c0-4.6-2.2-7.4-7-7.4-4.2 0-7.6 2.4-7.6 6.9v11.4c0 5 2 7.9 4 9.1q.4.3.3.8 0 .9-1 .8c-2.3 0-4.6-.5-7-.5-2.3 0-4.7.5-7 .5q-.9 0-1-.8 0-.5.4-.8a12 12 0 0 0 4-9.1V28.2q-.2-7.5-3.7-9.6-.6-.5-.6-1 0-1 1-1c4.7 0 8.2-3.2 10.9-3.2q.9 0 1 .9l-.3.7c-.7 1-1.3 2.6-1.3 3.6q0 .9.7.9t1.2-.9a11 11 0 0 1 9.7-5.2c4.2 0 7.6 2 9.3 5.8q.3.7 1 .8.7 0 1.1-1 4-5.8 10.6-5.6c6.3 0 10.7 4.6 10.7 12.9v12.6c0 5 2 7.9 4 9.2q.2.2.3.7 0 .9-1 .8c-2.3 0-4.7-.5-7-.5s-4.8.5-7 .5c-.6 0-1.6-.2-1.6-.8q0-.5.3-.7c2.5-1.3 4.6-4.2 4.6-9.2V28c0-4.6-2.3-7.4-7-7.4-4.2 0-7.6 2.4-7.6 6.9v11.4c0 5 2 7.9 4 9.2q.3.2.3.7 0 .9-1 .8c-2.3 0-4.6-.5-7-.5-2.3 0-4.7.5-7 .5m65.5-16.1c0-8.6-5.4-13-10.2-13-4.2 0-7.4 2.5-7.4 7v6.8c0 6 3.3 9.9 8.5 9.9 5 0 9-4.3 9-10.7m-29.2 28.7q0-.5.3-.8a12 12 0 0 0 4-9.1v-24c0-5.1-1.5-8.3-3.7-9.7q-.6-.5-.6-1 0-1 1-1c4.7 0 8.2-3.2 10.9-3.2q.9 0 1 .9l-.3.7c-.7 1-1.3 2.6-1.3 3.6q0 .9.7.9t1.2-.9q3.7-5.2 9.4-5.2c6.4 0 14 5.4 14 17 0 12.3-9 19.2-18.8 19.2-2.2 0-3.6-.5-4.7-.5q-1.4 0-1.5 1.4v1.8c0 5 2 7.9 4.7 9.1q.3.3.4.8-.1.8-1 .8c-3 0-5.4-.5-7.8-.5s-4.7.5-7 .5q-.9 0-1-.8m60.4-12.6c-.5 0-1.6-.2-1.6-.8q0-.5.4-.7c2.5-1.3 4.6-4.2 4.6-9.2V28c0-4.6-2.7-7.4-7.4-7.4-4.3 0-7.9 2.4-7.9 6.9v11.4c0 5 2 7.9 4 9.1q.3.3.3.8 0 .9-1 .8c-2.3 0-4.6-.5-7-.5-2.3 0-4.7.5-7 .5q-.9 0-1-.8 0-.5.4-.8a12 12 0 0 0 4-9.1v-24q-.2-7.6-3.7-9.7-.7-.5-.7-1 .1-1 1-1c6 0 8.6-3.2 11.3-3.2q.9 0 1 .9l-.3.8c-.6 1-1.3 3-1.3 6v11q0 .8.7.8t1.2-1c1.9-3.4 5.5-5.1 9.8-5.1 6.3 0 11 4.6 11 12.9v12.6c0 5 2 7.9 4 9.2l.2.7q0 .9-.9.8c-2.3 0-4.7-.5-7-.5-2.4 0-4.8.5-7 .5m27.8 0q-1 0-1-.8 0-.5.3-.8c2.2-1.2 4.3-4.1 4.3-9.1V12.5c0-5-2.1-8-4-9.2l-.3-.8q0-.8 1-.8c2.3 0 5 .5 7.7.5s5.3-.5 7.6-.5q1 0 1 .8 0 .5-.3.8c-1.8 1.3-4 4.1-4 9.2v25.2c0 5 1.8 6.8 6 6.8h2.3c8.4 0 15.2-7 18.4-14.2q.5-.9 1.2-.9 1 .2 1 1.7c-.7 4.2-2.7 7.7-5.2 12.2-2 3.5-1.1 6.3-3.4 6.3-.8 0-3.8-.5-6.7-.5h-18c-2.6 0-5.3.5-7.9.5m62 0c-9.3 0-17.5-7-17.5-18.3 0-11.1 8-17.9 17.7-17.9 9.4 0 17.4 7 17.4 17.9 0 11.3-7.9 18.3-17.5 18.3M285.3 28c0 8 4.8 16.2 11.1 16.2 5 0 8-3.7 8-9.4 0-8-5.5-16-11.4-16-4.4 0-7.7 3.4-7.7 9.2m31 4.6c0-12.2 8.5-19.2 18-19.2 2 0 3.9.5 5.4.5q1.3 0 1.4-1.3c0-3.8-1.8-6.2-3.6-7.4q-.6-.5-.6-1 0-1 1-1c4.7 0 8.5-3.2 11.5-3.2q.9 0 1 .9l-.3.8c-1 2-1.6 5.3-1.6 11.6v21.5c0 5 1.5 8.2 3.7 9.7q.6.5.6 1 0 .8-1 .9c-4.7 0-8.2 3.2-11 3.2q-.8 0-.9-.8 0-.5.3-.8c.7-1 1.3-2.5 1.3-3.6q0-.8-.7-.9t-1.3 1q-3.6 5.1-9.3 5.1c-6.4 0-14-5.4-14-17m7.3-3.9c0 9.4 5.6 13.8 10 13.8 4.3 0 7.6-2.4 7.6-7v-6.8c0-6-3.7-9.8-9-9.8-5 0-8.6 4.1-8.6 9.8m51 15.2q7.8-.1 11.7-6 .5-.9 1.1-.8 1.5.1.8 1.8c-.8 2-2 3-3.7 5.7-1.5 2.6-1.7 5-3 5-.7 0-1.5-.5-2.8-.5-1.8 0-2.6.5-5.8.5-12.3 0-19.5-7.7-19.5-18.5 0-11 8-17.7 16-17.7 5.6 0 9.2 2.8 12 6.8a4 4 0 0 0 3.5 1.8q1.7 0 1.8 1.4 0 1.2-1.6 1.7l-22 7q-1.3.2-1 2.1c1.5 5.4 6.1 9.7 12.6 9.7m-13-17.2q.2 1.8 1.5 1.4l10.4-3.4q.8-.4.7-1.3c-.7-2.8-2.8-5-5.8-5-3.8 0-6.7 3.2-6.7 8.3m42.7 23c-6.7 0-8-1.8-10.6-1.8-2 0-3.5 1.7-6.2 1.7-1.3 0-1.5-1.4-.5-1.8q2.9-1.2 4-6.5 1.4-5.4 3.3-6.5c1-.6 1.7.2 1.4 1.1a8 8 0 0 0-.6 3.4c.2 2.6 2.8 5.3 7 5.3 3.7 0 6.3-2.3 6-5.4-.2-2.6-1.8-3.8-3.8-4.6l-6-2.6q-6.4-2.9-6.5-8.8c0-6 4.8-9.8 11-9.8 4.5 0 6.5 1.5 9 1.5 2.4 0 3.9-1.5 6.1-1.5 1.3 0 1.3 1.6.3 2a8 8 0 0 0-4.5 4.2c-1.4 2.2-1.7 4.3-2.8 5.3-.9.8-1.8.2-1.6-.6v-1.9c-.1-2.6-1.8-4.4-5-4.4s-5 2.2-4.8 4q.2 2.9 4.5 4.6l4.6 1.9c5 2 7.6 5.7 7.6 10 0 6.9-5.7 11.1-11.9 11.1"/></svg>